<?xml version="1.0" encoding="utf-8"?>
<!-- Svg Vector Icons : http://www.onlinewebfonts.com/icon -->
<!DOCTYPE svg PUBLIC "-//W3C//DTD SVG 1.1//EN" "http://www.w3.org/Graphics/SVG/1.1/DTD/svg11.dtd">
<svg version="1.1" xmlns="http://www.w3.org/2000/svg" xmlns:xlink="http://www.w3.org/1999/xlink" x="0px" y="0px" viewBox="0 0 256 256" enable-background="new 0 0 256 256" xml:space="preserve">
<metadata> Svg Vector Icons : http://www.onlinewebfonts.com/icon </metadata>
<g><g><g><path fill="#000000" d="M121.2,58.5c-7.9,1.5-14.8,5.1-20.8,11.1c-4.9,4.9-7.8,9.6-9.9,16.1c-1.2,3.7-1.4,5.1-1.4,11.6c0,6.5,0.2,7.9,1.4,11.7c2.5,7.7,7.8,15,14.1,19.7l3.2,2.3l-2.6,0.9c-4.3,1.6-10,4.6-13.7,7.2c-1.9,1.3-3.5,2.3-3.6,2.2c-0.1-0.1-0.7-1.9-1.3-4c-1.7-5.7-4.8-10.4-9.7-15.3c-3.6-3.6-9.4-7.8-12-8.6c-0.3-0.1,0.2-1.2,1.2-2.4c1-1.3,2.5-3.7,3.3-5.5c1.3-2.7,1.5-3.9,1.5-8.4c0-4.7-0.2-5.5-1.7-8.8c-2.4-5.1-5.5-8.2-10.4-10.7c-3.9-1.9-4.4-2-9.3-2c-4.8,0-5.6,0.2-8.9,1.7c-5.1,2.4-8.2,5.5-10.7,10.4c-1.9,3.9-2,4.4-2,9.3c0,4.5,0.2,5.7,1.5,8.4c0.8,1.7,2.3,4.2,3.3,5.5c1,1.2,1.5,2.3,1.2,2.4c-2.1,0.7-8.1,4.8-11.1,7.5c-6.2,5.8-10.2,13.1-11.9,21.5c-1.1,6.1-1,8.6,0.6,10.2c2.8,2.9,7.4,0.8,7.4-3.4c0-3.9,1.1-8.6,3.3-12.9c4.6-9.6,14.1-16.1,24.8-17c16-1.3,30.6,10.4,32.8,26.4l0.4,2.8l-3.9,5.1c-8.3,10.9-12.7,22.7-13.5,36.1c-0.3,5.1-0.3,5.3,1.1,6.7c1.9,1.9,4.3,1.9,6.1,0.1c1.1-1,1.4-1.9,1.4-4c0-7.5,2.3-16.8,6.1-24.4c2.9-5.8,5.6-9.5,10.4-14.4c29.8-30.2,80.4-18.3,94.2,22.1c1.5,4.4,2.9,12.3,2.9,16.6c0,2.3,0.3,3.2,1.4,4.2c1.8,1.9,4.3,1.8,6.1-0.1c1.4-1.4,1.4-1.5,1.1-6.7c-0.8-13.4-5.3-25.2-13.7-36.3l-3.8-4.9l0.4-2.8c1.4-10,7.8-18.9,16.9-23.3c12.2-5.9,25.9-3.5,35.3,6.1c5.1,5.2,8.7,13.7,8.7,20.8c0,4.3,4.5,6.3,7.5,3.4c1.4-1.4,1.4-1.6,1.1-5.8c-0.4-5.5-2.4-12-5.1-16.8c-2.7-4.5-9.8-11.7-14.3-14.3c-2-1.1-3.8-2.1-4.1-2.2c-0.3-0.1,0.2-1.2,1.2-2.4c1-1.3,2.5-3.7,3.3-5.5c1.3-2.7,1.5-3.9,1.5-8.4c0-4.9-0.1-5.4-2-9.3c-2.5-5-5.6-8-10.7-10.4c-3.3-1.6-4.2-1.7-8.9-1.7c-4.9,0-5.4,0.1-9.3,2c-5,2.5-8,5.6-10.4,10.7c-1.6,3.3-1.8,4.2-1.8,8.8c0,4.5,0.2,5.6,1.5,8.4c0.8,1.7,2.3,4.2,3.3,5.5c1,1.2,1.5,2.3,1.2,2.4c-2.6,0.9-8.4,5-12,8.6c-4.9,4.9-7.9,9.7-9.7,15.3c-0.7,2.1-1.3,3.9-1.3,4c0,0.1-1.7-1-3.8-2.4c-4.1-2.7-9.3-5.5-13.4-7l-2.6-0.9l3.2-2.3c6.3-4.6,11.6-12,14.1-19.7c1.3-3.9,1.4-5.2,1.4-11.7c0-6.5-0.2-7.9-1.4-11.7c-2.1-6.3-5-10.9-9.9-15.8c-7.6-7.6-15.5-11.1-25.9-11.5C126.5,58.1,122.7,58.2,121.2,58.5z M133.8,67.3c5.4,0.9,11.6,4.3,15.7,8.5c14.8,14.7,10.7,39.8-8.1,48.8c-19.4,9.4-42-3.4-43.9-24.8c-1-12.3,5.9-24.5,17-29.8C121,66.9,126.9,66,133.8,67.3z M53.4,84.8c4.7,1.4,9.1,7.4,9.1,12.5s-4.4,11-9.1,12.5c-5.1,1.5-9.2,0.4-13.1-3.4c-5.6-5.5-5.6-12.5,0-18C44.1,84.4,48.2,83.4,53.4,84.8z M210.7,84.8c4.7,1.4,9.1,7.4,9.1,12.5c0,6.8-6.3,13.1-13.1,13.1c-3.4,0-6.2-1.3-9-4.1c-5.6-5.5-5.6-12.5,0-18C201.5,84.4,205.6,83.4,210.7,84.8z"/></g></g></g>
</svg>